<svg xmlns="http://www.w3.org/2000/svg" viewBox="0 0 512 512">
  <defs>
    <linearGradient id="bg10" x1="0" y1="0" x2="1" y2="1">
      <stop offset="0" stop-color="#0B0B1F"/>
      <stop offset="1" stop-color="#1B0B2B"/>
    </linearGradient>
    <linearGradient id="cubeTop" x1="0" y1="0" x2="0" y2="1">
      <stop offset="0" stop-color="#F1F5F9"/>
      <stop offset="1" stop-color="#94A3B8"/>
    </linearGradient>
  </defs>
  <rect width="512" height="512" rx="112" fill="url(#bg10)"/>
  <!-- RGB split: magenta offset -->
  <g opacity="0.85" transform="translate(-8 -8)">
    <path d="M 256 112 L 396 192 L 256 272 L 116 192 Z" fill="#EC4899" opacity="0.7"/>
    <path d="M 116 192 L 256 272 L 256 420 L 116 340 Z" fill="#EC4899" opacity="0.55"/>
    <path d="M 396 192 L 256 272 L 256 420 L 396 340 Z" fill="#EC4899" opacity="0.55"/>
  </g>
  <!-- cyan offset -->
  <g opacity="0.85" transform="translate(8 4)">
    <path d="M 256 112 L 396 192 L 256 272 L 116 192 Z" fill="#22D3EE" opacity="0.7"/>
    <path d="M 116 192 L 256 272 L 256 420 L 116 340 Z" fill="#22D3EE" opacity="0.55"/>
    <path d="M 396 192 L 256 272 L 256 420 L 396 340 Z" fill="#22D3EE" opacity="0.55"/>
  </g>
  <!-- main cube -->
  <g>
    <path d="M 256 112 L 396 192 L 256 272 L 116 192 Z" fill="url(#cubeTop)"/>
    <path d="M 116 192 L 256 272 L 256 420 L 116 340 Z" fill="#4C1D95"/>
    <path d="M 396 192 L 256 272 L 256 420 L 396 340 Z" fill="#6D28D9"/>
  </g>
  <!-- L on top face -->
  <path d="M 220 170 L 220 230 L 290 230" stroke="#0F172A" stroke-width="18" stroke-linecap="round" stroke-linejoin="round" fill="none"/>
</svg>
